<svg xmlns="http://www.w3.org/2000/svg" width="20" height="16" viewBox="0 0 20 16">
  <g id="Communication_Mail" data-name="Communication / Mail" transform="translate(1 1)">
    <path id="Vector" d="M4,6l6.108,4.612,0,0a4.588,4.588,0,0,0,1.389.842,2,2,0,0,0,1,0,4.6,4.6,0,0,0,1.392-.844S17.81,7.606,20,6M3,15.8V8.2a4.971,4.971,0,0,1,.218-2.108,2,2,0,0,1,.874-.874A4.971,4.971,0,0,1,6.2,5H17.8a4.964,4.964,0,0,1,2.107.218,2,2,0,0,1,.875.874A4.962,4.962,0,0,1,21,8.2V15.8a4.957,4.957,0,0,1-.218,2.1,2,2,0,0,1-.875.874A4.957,4.957,0,0,1,17.8,19H6.2a4.962,4.962,0,0,1-2.105-.218,2,2,0,0,1-.874-.874A4.967,4.967,0,0,1,3,15.8Z" transform="translate(-3 -5)" fill="none" stroke="#fff" stroke-linecap="round" stroke-linejoin="round" stroke-width="2"/>
  </g>
</svg>
