<svg xmlns="http://www.w3.org/2000/svg" width="158.339" height="147.5" viewBox="0 0 158.339 147.5">
  <g id="budy-dla-psow-stolarstwo-marek-kesik" transform="translate(-6.249 -8.011)">
    <path id="Path_13" data-name="Path 13" d="M92.058,10.343a10.628,10.628,0,0,0-13.278-.006L9.97,67.7A10.361,10.361,0,0,0,23.162,83.679v68.758a3.072,3.072,0,0,0,3.074,3.074H144.6a3.072,3.072,0,0,0,3.074-3.074V83.676A10.361,10.361,0,0,0,160.865,67.7ZM65.819,149.36V135.138a19.6,19.6,0,1,1,39.2,0V149.36Zm45.347,0V135.138a25.748,25.748,0,1,0-51.5,0V149.36H29.311v-70.8l56.107-46.77L141.525,78.56v70.8Zm46.3-71.005a4.319,4.319,0,0,1-5.94.541L87.388,25.429a3.089,3.089,0,0,0-3.941,0L19.307,78.9a4.328,4.328,0,0,1-5.94-.538,4.226,4.226,0,0,1,.541-5.94L82.721,15.056a4.322,4.322,0,0,1,5.4.006l68.81,57.355a4.222,4.222,0,0,1,.541,5.937Z" transform="translate(0 0)" fill="#dca757"/>
    <path id="Path_14" data-name="Path 14" d="M83.719,25.806a12.782,12.782,0,0,0-12.433,9.552H44.764A12.867,12.867,0,1,0,21.8,46.035a12.761,12.761,0,0,0-2.346,7.351,12.873,12.873,0,0,0,25.311,3.323H71.287A12.867,12.867,0,1,0,94.252,46.035,12.833,12.833,0,0,0,83.719,25.806Zm4.406,22.541a6.638,6.638,0,0,1,2.327,5.039,6.72,6.72,0,0,1-13.438.169,3.078,3.078,0,0,0-3.074-3H42.114a3.078,3.078,0,0,0-3.074,3,6.72,6.72,0,1,1-11.111-5.208,3.073,3.073,0,0,0,0-4.624A6.638,6.638,0,0,1,25.6,38.684a6.72,6.72,0,0,1,13.438-.172,3.08,3.08,0,0,0,3.074,3H73.94a3.08,3.08,0,0,0,3.074-3,6.72,6.72,0,1,1,11.111,5.211,3.073,3.073,0,0,0,0,4.624Z" transform="translate(27.391 36.912)" fill="#dca757"/>
  </g>
</svg>
