<svg id="drzwi-zewnetrzne-stolarstwo-marek-kesik" xmlns="http://www.w3.org/2000/svg" width="147.5" height="147.5" viewBox="0 0 147.5 147.5">
  <g id="Group_5" data-name="Group 5" transform="translate(0 142.583)">
    <g id="Group_4" data-name="Group 4">
      <path id="Path_1" data-name="Path 1" d="M145.042,494.933H2.458a2.458,2.458,0,0,0,0,4.917H145.041a2.458,2.458,0,0,0,0-4.917Z" transform="translate(0 -494.933)" fill="#dca757"/>
    </g>
  </g>
  <g id="Group_7" data-name="Group 7" transform="translate(7.375)">
    <g id="Group_6" data-name="Group 6">
      <path id="Path_2" data-name="Path 2" d="M91.975,0H28.058A2.458,2.458,0,0,0,25.6,2.458V145.041a2.458,2.458,0,0,0,2.458,2.458H91.975a2.458,2.458,0,0,0,2.458-2.458V2.458A2.458,2.458,0,0,0,91.975,0ZM89.517,142.583h-59V4.917h59Z" transform="translate(-25.6)" fill="#dca757"/>
    </g>
  </g>
  <g id="Group_9" data-name="Group 9" transform="translate(17.209 9.833)">
    <g id="Group_8" data-name="Group 8">
      <path id="Path_3" data-name="Path 3" d="M106.442,34.133H62.192a2.458,2.458,0,0,0-2.458,2.458v132.75a2.458,2.458,0,0,0,2.458,2.458h44.25a2.458,2.458,0,0,0,2.458-2.458V36.591A2.458,2.458,0,0,0,106.442,34.133Zm-2.459,132.75H64.65V39.05h39.333V166.883Z" transform="translate(-59.734 -34.133)" fill="#dca757"/>
    </g>
  </g>
  <g id="Group_11" data-name="Group 11" transform="translate(71.292)">
    <g id="Group_10" data-name="Group 10">
      <path id="Path_4" data-name="Path 4" d="M313.842,0H249.925a2.458,2.458,0,0,0-2.458,2.458V145.041a2.458,2.458,0,0,0,2.458,2.458h63.917a2.458,2.458,0,0,0,2.458-2.458V2.458A2.458,2.458,0,0,0,313.842,0Zm-2.458,142.583h-59V4.917h59Z" transform="translate(-247.467)" fill="#dca757"/>
    </g>
  </g>
  <g id="Group_13" data-name="Group 13" transform="translate(81.125 9.833)">
    <g id="Group_12" data-name="Group 12">
      <path id="Path_5" data-name="Path 5" d="M328.308,34.133h-44.25a2.458,2.458,0,0,0-2.458,2.458v132.75a2.458,2.458,0,0,0,2.458,2.458h44.25a2.458,2.458,0,0,0,2.458-2.458V36.591A2.457,2.457,0,0,0,328.308,34.133Zm-2.458,132.75H286.517V39.05H325.85Z" transform="translate(-281.6 -34.133)" fill="#dca757"/>
    </g>
  </g>
  <g id="Group_15" data-name="Group 15" transform="translate(90.959 61.458)">
    <g id="Group_14" data-name="Group 14">
      <path id="Path_6" data-name="Path 6" d="M318.192,213.333a2.458,2.458,0,0,0-2.458,2.458v29.5a2.458,2.458,0,1,0,4.916,0v-29.5A2.458,2.458,0,0,0,318.192,213.333Z" transform="translate(-315.734 -213.333)" fill="#dca757"/>
    </g>
  </g>
  <g id="Group_17" data-name="Group 17" transform="translate(51.625 61.458)">
    <g id="Group_16" data-name="Group 16">
      <path id="Path_7" data-name="Path 7" d="M181.658,213.333a2.458,2.458,0,0,0-2.458,2.458v29.5a2.458,2.458,0,1,0,4.916,0v-29.5A2.457,2.457,0,0,0,181.658,213.333Z" transform="translate(-179.2 -213.333)" fill="#dca757"/>
    </g>
  </g>
</svg>
