<svg xmlns="http://www.w3.org/2000/svg" width="147.501" height="147.5" viewBox="0 0 147.501 147.5">
  <g id="_12-timber" transform="translate(0 -0.004)">
    <path id="Path_12" data-name="Path 12" d="M147.464,13.419a2.417,2.417,0,0,0-1.841-1.846L88.04.049a2.291,2.291,0,0,0-2.074.629L.659,85.968A2.305,2.305,0,0,0,0,87.536V101.41a2.3,2.3,0,0,0,1.844,2.259L12.985,105.9.675,118.218A2.577,2.577,0,0,0,0,119.848v13.828a2.3,2.3,0,0,0,1.844,2.259l57.618,11.524a2.136,2.136,0,0,0,.461.046,2.3,2.3,0,0,0,1.629-.675l85.274-85.274a2.3,2.3,0,0,0,.675-1.629V46.1a2.3,2.3,0,0,0-1.844-2.259l-11.141-2.231,12.319-12.319a2.3,2.3,0,0,0,.666-1.629V13.79a2.2,2.2,0,0,0-.037-.371Zm-88.3,115.452-5.605-1.122a55.917,55.917,0,0,1,5.9-12.558,2.137,2.137,0,0,0,.461.048,2.278,2.278,0,0,0,.885-.18,2.242,2.242,0,0,0,.744-.5L100.716,75.4a66.858,66.858,0,0,0-3.777,15.7Zm-4.526-14.644a60.543,60.543,0,0,0-5.626,12.611l-20.779-4.148a89.35,89.35,0,0,1,4.651-12.807ZM59.164,96.6l-3.584-.726A155.511,155.511,0,0,1,94.723,22.156l12.83-13.5,9.756,1.952L104.945,22.248a84.926,84.926,0,0,0-26.5,55.071ZM102.2,7.583,91.372,18.98a160.119,160.119,0,0,0-40.312,76l-22.1-4.42A336.488,336.488,0,0,1,83.578,18.779L96.012,6.346Zm5.9,18.02,14.75-13.888,17.659,3.531L83.7,72.064A80.305,80.305,0,0,1,108.1,25.6ZM88.337,4.808l2.249.461L80.326,15.521a341,341,0,0,0-56.14,74.087L6.979,86.167ZM4.609,90.393,57.618,101v9.127L4.609,99.52Zm23.642,18.555A94.564,94.564,0,0,0,23.7,121.777L6.979,118.433l11.459-11.447ZM4.609,122.659l53.008,10.6v9.127l-53.008-10.6ZM142.892,58.971,62.227,139.636v-7.311l80.665-80.665Zm-2.369-11.459L102.559,85.468a48.6,48.6,0,0,1,14.116-26.043l13.907-13.907Zm2.369-20.807L62.227,107.37v-7.311l80.665-80.665Z" transform="translate(0 0)" fill="#dca757"/>
  </g>
</svg>
