<svg xmlns="http://www.w3.org/2000/svg" width="147.5" height="147.5" viewBox="0 0 147.5 147.5">
  <g id="wzornik-kolorow-stolarstwo-marek-kesik" transform="translate(0 0)">
    <path id="Path_15" data-name="Path 15" d="M140.124,98.333H116.308l20.615-11.9a7.368,7.368,0,0,0,2.724-10.073L122.434,46.55a7.373,7.373,0,0,0-4.487-3.433,7.3,7.3,0,0,0-5.6.748L91.727,55.773l11.9-20.609a7.374,7.374,0,0,0-2.688-10.1L71.138,7.848A7.371,7.371,0,0,0,61.074,10.57L49.167,31.2V7.375A7.384,7.384,0,0,0,41.791,0H7.375A7.384,7.384,0,0,0,0,7.375V140.124A7.384,7.384,0,0,0,7.375,147.5H140.124a7.384,7.384,0,0,0,7.375-7.375V105.708a7.384,7.384,0,0,0-7.375-7.375Zm-132.749,0a7.311,7.311,0,0,0-2.459.454V73.75H24.6L10.4,98.333Zm99.1,0H72.857L61.595,78.85,87.139,64.1,106.8,98.148ZM83.208,60.691,54.1,77.5l-19.5-11.257L49.354,40.7,83.4,60.361ZM44.25,39.711,29.144,65.877c-.008.012-.02.018-.028.032l-.014.039-1.665,2.885H4.916v-29.5H44.25ZM32.152,70.5l17.036,9.838-31.164,18H16.082ZM55.3,82.485l.032-.018,2-1.158,9.841,17.024H27.858ZM44.25,103.249h29.5v39.334H44.25Zm34.416,0h29.5v39.334h-29.5Zm36.148-55.131a2.427,2.427,0,0,1,1.861-.253,2.494,2.494,0,0,1,1.507,1.153l17.2,29.79a2.448,2.448,0,0,1-.915,3.358L111.054,95.687,91.4,61.64Zm-49.478-35.1a2.452,2.452,0,0,1,3.349-.912l29.785,17.2a2.494,2.494,0,0,1,1.164,1.511,2.433,2.433,0,0,1-.26,1.871L85.86,56.1,51.813,36.446ZM7.375,4.916H41.792a2.463,2.463,0,0,1,2.459,2.459V34.416H4.917V7.375A2.463,2.463,0,0,1,7.376,4.916ZM4.917,140.124V105.708a2.463,2.463,0,0,1,2.459-2.459H39.334v39.334H7.375a2.463,2.463,0,0,1-2.459-2.459Zm137.667,0a2.463,2.463,0,0,1-2.459,2.459H113.084V103.249h27.041a2.463,2.463,0,0,1,2.459,2.459Zm0,0" transform="translate(0)" fill="#dca757"/>
    <path id="Path_16" data-name="Path 16" d="M61.032,392.535a9.833,9.833,0,1,0,9.833,9.833A9.833,9.833,0,0,0,61.032,392.535Zm0,14.75a4.917,4.917,0,1,1,4.917-4.917A4.916,4.916,0,0,1,61.032,407.285Zm0,0" transform="translate(-36.45 -279.451)" fill="#dca757"/>
  </g>
</svg>
