<svg xmlns="http://www.w3.org/2000/svg" width="78.556" height="147.5" viewBox="0 0 78.556 147.5">
  <path id="drzwi-wewnetrzne-stolarstwo-marek-kesik" d="M193.788,0H118.476a1.623,1.623,0,0,0-1.622,1.623V145.878a1.623,1.623,0,0,0,1.622,1.622h75.311a1.623,1.623,0,0,0,1.623-1.622V1.623A1.623,1.623,0,0,0,193.788,0Zm-6.7,74.374h-14.7V70.142h19.777V81.869h-3.452V76A1.622,1.622,0,0,0,187.091,74.374Zm-7.8-7.477h-8.526a1.623,1.623,0,0,0-1.614,1.457c-.006.055-.006,7.755,0,7.809a1.623,1.623,0,0,0,1.614,1.457h8.526v54.37H132.972V15.511h46.321V66.9Zm12.873,77.358H120.1V3.245h72.066V66.9h-9.628V13.888a1.623,1.623,0,0,0-1.623-1.623H131.349a1.623,1.623,0,0,0-1.622,1.623V133.612a1.622,1.622,0,0,0,1.622,1.622h49.566a1.622,1.622,0,0,0,1.622-1.622V77.619h2.931v5.872a1.623,1.623,0,0,0,1.622,1.622h5.074v59.141Z" transform="translate(-116.854)" fill="#dca757"/>
</svg>
