<svg xmlns="http://www.w3.org/2000/svg" width="109.528" height="150.5" viewBox="0 0 109.528 150.5">
  <g id="oscieznice-drewniane-stolarstwo-marek-kesik" transform="translate(-75.028 -6)">
    <path id="Path_8" data-name="Path 8" d="M117.944,166.222V35.111l8.195,8.194V166.222" transform="translate(-29.125 -19.417)" fill="none" stroke="#dca757" stroke-linecap="round" stroke-linejoin="round" stroke-width="3"/>
    <path id="Path_9" data-name="Path 9" d="M374.639,61.3V35.111l-8.195,8.194V166.222" transform="translate(-203.874 -19.417)" fill="none" stroke="#dca757" stroke-linecap="round" stroke-linejoin="round" stroke-width="3"/>
    <line id="Line_1" data-name="Line 1" y1="94.534" transform="translate(170.764 52.271)" fill="none" stroke="#dca757" stroke-linecap="round" stroke-linejoin="round" stroke-width="3"/>
    <path id="Path_10" data-name="Path 10" d="M109.185,15.694H90.647a.314.314,0,0,1-.314-.314V7.814a.314.314,0,0,1,.314-.314h97.706a.314.314,0,0,1,.314.314V15.38a.314.314,0,0,1-.314.314h-68.78" transform="translate(-9.708 0)" fill="none" stroke="#dca757" stroke-linecap="round" stroke-linejoin="round" stroke-width="3"/>
    <path id="Path_11" data-name="Path 11" d="M120.842,476.889h61.9a.314.314,0,0,1,.314.314v7.566a.314.314,0,0,1-.314.314H76.842a.314.314,0,0,1-.314-.314V477.2a.314.314,0,0,1,.314-.314h33.613" transform="translate(0 -330.083)" fill="none" stroke="#dca757" stroke-linecap="round" stroke-linejoin="round" stroke-width="3"/>
    <line id="Line_2" data-name="Line 2" x2="65.555" transform="translate(97.014 23.889)" fill="none" stroke="#dca757" stroke-linecap="round" stroke-linejoin="round" stroke-width="3"/>
  </g>
</svg>
