<svg xmlns="http://www.w3.org/2000/svg" width="20" height="20" viewBox="0 0 20 20">
  <g id="Communication_Phone" data-name="Communication / Phone" transform="translate(1 1)">
    <path id="Vector" d="M9.5,4.257A2,2,0,0,0,7.646,3H4.895A1.9,1.9,0,0,0,3,4.895,16.106,16.106,0,0,0,19.105,21,1.9,1.9,0,0,0,21,19.105V16.354A2,2,0,0,0,19.743,14.5l-2.637-1.054a2,2,0,0,0-2.023.32l-.68.568a2,2,0,0,1-2.7-.122L9.792,12.291A2,2,0,0,1,9.669,9.6l.567-.68a2,2,0,0,0,.321-2.023Z" transform="translate(-3 -3)" fill="none" stroke="#fff" stroke-linecap="round" stroke-linejoin="round" stroke-width="2"/>
  </g>
</svg>
